<mxfile host="65bd71144e">
    <diagram id="YrSzpa-H51OLec4P3ytI" name="Page-1">
        <mxGraphModel dx="2152" dy="771" grid="1" gridSize="10" guides="1" tooltips="1" connect="1" arrows="1" fold="1" page="1" pageScale="1" pageWidth="850" pageHeight="1100" background="#FFFFFF" math="0" shadow="0">
            <root>
                <mxCell id="0"/>
                <mxCell id="1" parent="0"/>
                <mxCell id="327" value="" style="whiteSpace=wrap;html=1;fillColor=#F5F5F5;strokeColor=#000000;" vertex="1" parent="1">
                    <mxGeometry x="-60" y="380" width="190" height="390" as="geometry"/>
                </mxCell>
                <mxCell id="328" value="&lt;font color=&quot;#000000&quot;&gt;&lt;b&gt;/gazebo&lt;/b&gt;&lt;/font&gt;" style="text;html=1;resizable=0;autosize=1;align=center;verticalAlign=middle;points=[];fillColor=none;strokeColor=none;rounded=0;" vertex="1" parent="1">
                    <mxGeometry y="380" width="60" height="20" as="geometry"/>
                </mxCell>
                <mxCell id="329" value="&lt;font style=&quot;font-size: 13px&quot;&gt;/gazebo/set_model&lt;/font&gt;" style="whiteSpace=wrap;html=1;fontColor=#000000;fillColor=#F5F5F5;strokeColor=#000000;" vertex="1" parent="1">
                    <mxGeometry x="-35" y="410" width="130" height="30" as="geometry"/>
                </mxCell>
                <mxCell id="330" value="&lt;font style=&quot;font-size: 13px&quot;&gt;/gazebo/actionIn&lt;/font&gt;" style="whiteSpace=wrap;html=1;fontColor=#000000;fillColor=#F5F5F5;strokeColor=#000000;" vertex="1" parent="1">
                    <mxGeometry x="-35" y="450" width="130" height="30" as="geometry"/>
                </mxCell>
                <mxCell id="331" value="&lt;font style=&quot;font-size: 13px&quot;&gt;/gazebo/position&lt;/font&gt;" style="whiteSpace=wrap;html=1;fontColor=#000000;fillColor=#F5F5F5;strokeColor=#000000;" vertex="1" parent="1">
                    <mxGeometry x="-35" y="490" width="130" height="30" as="geometry"/>
                </mxCell>
                <mxCell id="332" value="&lt;font style=&quot;font-size: 13px&quot;&gt;/gazebo/scan&lt;/font&gt;" style="whiteSpace=wrap;html=1;fontColor=#000000;fillColor=#F5F5F5;strokeColor=#000000;" vertex="1" parent="1">
                    <mxGeometry x="-35" y="530" width="130" height="30" as="geometry"/>
                </mxCell>
                <mxCell id="333" value="&lt;font style=&quot;font-size: 13px&quot;&gt;/gazebo/goalReachedBool&lt;/font&gt;" style="whiteSpace=wrap;html=1;fontColor=#000000;fillColor=#F5F5F5;strokeColor=#000000;" vertex="1" parent="1">
                    <mxGeometry x="-47.5" y="570" width="165" height="30" as="geometry"/>
                </mxCell>
                <mxCell id="334" value="&lt;font style=&quot;font-size: 13px&quot;&gt;/gazebo/resetState&lt;/font&gt;" style="whiteSpace=wrap;html=1;fontColor=#000000;fillColor=#F5F5F5;strokeColor=#000000;" vertex="1" parent="1">
                    <mxGeometry x="-35" y="610" width="130" height="30" as="geometry"/>
                </mxCell>
                <mxCell id="335" value="&lt;font style=&quot;font-size: 13px&quot;&gt;/gazebo/goalReached&lt;/font&gt;" style="whiteSpace=wrap;html=1;fontColor=#000000;fillColor=#F5F5F5;strokeColor=#000000;" vertex="1" parent="1">
                    <mxGeometry x="-35" y="650" width="135" height="30" as="geometry"/>
                </mxCell>
                <mxCell id="336" value="&lt;font style=&quot;font-size: 13px&quot;&gt;/gazebo/reset&lt;/font&gt;" style="whiteSpace=wrap;html=1;fontColor=#000000;fillColor=#F5F5F5;strokeColor=#000000;" vertex="1" parent="1">
                    <mxGeometry x="-35" y="690" width="130" height="30" as="geometry"/>
                </mxCell>
                <mxCell id="337" value="&lt;font style=&quot;font-size: 13px&quot;&gt;/gazebo/step&lt;/font&gt;" style="whiteSpace=wrap;html=1;fontColor=#000000;fillColor=#F5F5F5;strokeColor=#000000;" vertex="1" parent="1">
                    <mxGeometry x="-35" y="730" width="130" height="30" as="geometry"/>
                </mxCell>
                <mxCell id="338" value="" style="whiteSpace=wrap;html=1;fillColor=#F5F5F5;strokeColor=#000000;" vertex="1" parent="1">
                    <mxGeometry x="440" y="380" width="170" height="165" as="geometry"/>
                </mxCell>
                <mxCell id="339" value="&lt;font color=&quot;#000000&quot;&gt;&lt;b&gt;/preprocessor&lt;/b&gt;&lt;/font&gt;" style="text;html=1;resizable=0;autosize=1;align=center;verticalAlign=middle;points=[];fillColor=none;strokeColor=none;rounded=0;" vertex="1" parent="1">
                    <mxGeometry x="475" y="385" width="100" height="20" as="geometry"/>
                </mxCell>
                <mxCell id="340" value="/preprocessor/reward" style="whiteSpace=wrap;html=1;fontColor=#000000;fillColor=#F5F5F5;strokeColor=#000000;" vertex="1" parent="1">
                    <mxGeometry x="460" y="415" width="140" height="30" as="geometry"/>
                </mxCell>
                <mxCell id="341" value="/preprocessor/terminal" style="whiteSpace=wrap;html=1;fontColor=#000000;fillColor=#F5F5F5;strokeColor=#000000;" vertex="1" parent="1">
                    <mxGeometry x="460" y="455" width="140" height="30" as="geometry"/>
                </mxCell>
                <mxCell id="342" value="/preprocessor/state" style="whiteSpace=wrap;html=1;fontColor=#000000;fillColor=#F5F5F5;strokeColor=#000000;" vertex="1" parent="1">
                    <mxGeometry x="460" y="495" width="140" height="30" as="geometry"/>
                </mxCell>
                <mxCell id="345" value="" style="whiteSpace=wrap;html=1;fillColor=#F5F5F5;strokeColor=#000000;" vertex="1" parent="1">
                    <mxGeometry x="520" y="650" width="170" height="85" as="geometry"/>
                </mxCell>
                <mxCell id="346" value="&lt;font color=&quot;#000000&quot;&gt;&lt;b&gt;/postprocessor&lt;/b&gt;&lt;/font&gt;" style="text;html=1;resizable=0;autosize=1;align=center;verticalAlign=middle;points=[];fillColor=none;strokeColor=none;rounded=0;" vertex="1" parent="1">
                    <mxGeometry x="555" y="655" width="100" height="20" as="geometry"/>
                </mxCell>
                <mxCell id="347" value="&lt;font style=&quot;font-size: 13px&quot;&gt;/post/step&lt;/font&gt;" style="whiteSpace=wrap;html=1;fontColor=#000000;fillColor=#F5F5F5;strokeColor=#000000;" vertex="1" parent="1">
                    <mxGeometry x="540" y="685" width="130" height="30" as="geometry"/>
                </mxCell>
                <mxCell id="348" value="&lt;b style=&quot;font-size: 16px&quot;&gt;/&lt;font style=&quot;font-size: 16px&quot;&gt;agent_training_node&lt;/font&gt;&lt;/b&gt;" style="ellipse;whiteSpace=wrap;html=1;fontColor=#000000;strokeColor=#000000;fillColor=#F5F5F5;" vertex="1" parent="1">
                    <mxGeometry x="630" y="532.5" width="190" height="85" as="geometry"/>
                </mxCell>
                <mxCell id="349" value="&lt;font style=&quot;font-size: 16px&quot;&gt;&lt;b&gt;/postprocessor&lt;font style=&quot;font-size: 16px&quot;&gt;_node&lt;/font&gt;&lt;/b&gt;&lt;/font&gt;" style="ellipse;whiteSpace=wrap;html=1;fontColor=#000000;strokeColor=#000000;fillColor=#F5F5F5;" vertex="1" parent="1">
                    <mxGeometry x="250" y="685" width="210" height="67.5" as="geometry"/>
                </mxCell>
                <mxCell id="350" value="&lt;font style=&quot;font-size: 16px&quot;&gt;&lt;b&gt;/preprocessor&lt;font style=&quot;font-size: 16px&quot;&gt;_node&lt;/font&gt;&lt;/b&gt;&lt;/font&gt;" style="ellipse;whiteSpace=wrap;html=1;fontColor=#000000;strokeColor=#000000;fillColor=#F5F5F5;" vertex="1" parent="1">
                    <mxGeometry x="180" y="490" width="190" height="80" as="geometry"/>
                </mxCell>
                <mxCell id="351" value="&lt;font size=&quot;1&quot;&gt;&lt;b style=&quot;font-size: 18px&quot;&gt;/gazebo&lt;/b&gt;&lt;/font&gt;" style="ellipse;whiteSpace=wrap;html=1;fontColor=#000000;strokeColor=#000000;fillColor=#F5F5F5;" vertex="1" parent="1">
                    <mxGeometry x="200" y="320" width="150" height="75" as="geometry"/>
                </mxCell>
                <mxCell id="355" style="edgeStyle=none;html=1;exitX=0.553;exitY=0;exitDx=0;exitDy=0;fontSize=18;fontColor=#000000;strokeColor=#000000;curved=1;entryX=0;entryY=0.5;entryDx=0;entryDy=0;exitPerimeter=0;" edge="1" parent="1" source="352" target="353">
                    <mxGeometry relative="1" as="geometry">
                        <mxPoint x="-40" y="330" as="targetPoint"/>
                        <Array as="points">
                            <mxPoint x="-160" y="400"/>
                        </Array>
                    </mxGeometry>
                </mxCell>
                <mxCell id="352" value="&lt;font size=&quot;1&quot;&gt;&lt;b style=&quot;font-size: 16px&quot;&gt;/gazeboEnv&lt;/b&gt;&lt;/font&gt;" style="ellipse;whiteSpace=wrap;html=1;fontColor=#000000;strokeColor=#000000;fillColor=#F5F5F5;" vertex="1" parent="1">
                    <mxGeometry x="-280" y="525" width="130" height="65" as="geometry"/>
                </mxCell>
                <mxCell id="353" value="&lt;font style=&quot;font-size: 13px&quot;&gt;/cmd_vel&lt;/font&gt;" style="whiteSpace=wrap;html=1;fontColor=#000000;fillColor=#F5F5F5;strokeColor=#000000;" vertex="1" parent="1">
                    <mxGeometry x="-35" y="320" width="130" height="30" as="geometry"/>
                </mxCell>
                <mxCell id="356" style="edgeStyle=none;html=1;exitX=0.647;exitY=0.043;exitDx=0;exitDy=0;fontSize=18;fontColor=#000000;strokeColor=#000000;curved=1;entryX=0;entryY=0.5;entryDx=0;entryDy=0;exitPerimeter=0;" edge="1" parent="1" source="352" target="330">
                    <mxGeometry relative="1" as="geometry">
                        <mxPoint x="-25" y="345" as="targetPoint"/>
                        <mxPoint x="-207.04999999999995" y="535" as="sourcePoint"/>
                        <Array as="points">
                            <mxPoint x="-130" y="470"/>
                        </Array>
                    </mxGeometry>
                </mxCell>
                <mxCell id="357" style="edgeStyle=none;html=1;exitX=0.76;exitY=0.057;exitDx=0;exitDy=0;fontSize=18;fontColor=#000000;strokeColor=#000000;curved=1;entryX=0;entryY=0.5;entryDx=0;entryDy=0;exitPerimeter=0;" edge="1" parent="1" source="352" target="331">
                    <mxGeometry relative="1" as="geometry">
                        <mxPoint x="-15" y="355" as="targetPoint"/>
                        <mxPoint x="-197.04999999999995" y="545" as="sourcePoint"/>
                        <Array as="points">
                            <mxPoint x="-110" y="500"/>
                        </Array>
                    </mxGeometry>
                </mxCell>
                <mxCell id="358" style="edgeStyle=none;html=1;exitX=0.92;exitY=0.257;exitDx=0;exitDy=0;fontSize=18;fontColor=#000000;strokeColor=#000000;curved=1;entryX=0;entryY=0.5;entryDx=0;entryDy=0;exitPerimeter=0;" edge="1" parent="1" source="352" target="332">
                    <mxGeometry relative="1" as="geometry">
                        <mxPoint x="-5" y="365" as="targetPoint"/>
                        <mxPoint x="-187.04999999999995" y="555" as="sourcePoint"/>
                        <Array as="points">
                            <mxPoint x="-140" y="545"/>
                            <mxPoint x="-120" y="545"/>
                            <mxPoint x="-110" y="545"/>
                            <mxPoint x="-90" y="545"/>
                        </Array>
                    </mxGeometry>
                </mxCell>
                <mxCell id="359" style="edgeStyle=none;html=1;exitX=1;exitY=0.5;exitDx=0;exitDy=0;fontSize=18;fontColor=#000000;strokeColor=#000000;curved=1;entryX=0;entryY=0.5;entryDx=0;entryDy=0;" edge="1" parent="1" source="352" target="333">
                    <mxGeometry relative="1" as="geometry">
                        <mxPoint x="-27.950000000000003" y="550" as="targetPoint"/>
                        <mxPoint x="-209.99999999999994" y="740" as="sourcePoint"/>
                        <Array as="points">
                            <mxPoint x="-90" y="580"/>
                        </Array>
                    </mxGeometry>
                </mxCell>
                <mxCell id="361" style="edgeStyle=none;html=1;fontSize=18;fontColor=#000000;strokeColor=#000000;curved=1;entryX=0;entryY=0.5;entryDx=0;entryDy=0;" edge="1" parent="1" source="352" target="334">
                    <mxGeometry relative="1" as="geometry">
                        <mxPoint x="-25" y="595" as="targetPoint"/>
                        <mxPoint x="-160" y="580" as="sourcePoint"/>
                        <Array as="points">
                            <mxPoint x="-130" y="600"/>
                        </Array>
                    </mxGeometry>
                </mxCell>
                <mxCell id="362" style="edgeStyle=none;html=1;exitX=0.56;exitY=0.029;exitDx=0;exitDy=0;fontSize=18;fontColor=#000000;strokeColor=#000000;curved=1;entryX=0;entryY=0.5;entryDx=0;entryDy=0;exitPerimeter=0;" edge="1" parent="1" source="352" target="329">
                    <mxGeometry relative="1" as="geometry">
                        <mxPoint x="-25" y="345" as="targetPoint"/>
                        <mxPoint x="-207.04999999999995" y="535" as="sourcePoint"/>
                        <Array as="points">
                            <mxPoint x="-150" y="410"/>
                        </Array>
                    </mxGeometry>
                </mxCell>
                <mxCell id="363" style="edgeStyle=none;html=1;fontSize=18;fontColor=#000000;strokeColor=#000000;curved=1;entryX=0.333;entryY=0.957;entryDx=0;entryDy=0;entryPerimeter=0;exitX=0;exitY=0.5;exitDx=0;exitDy=0;" edge="1" parent="1" source="337" target="352">
                    <mxGeometry relative="1" as="geometry">
                        <mxPoint x="-65" y="725" as="targetPoint"/>
                        <mxPoint x="-190" y="680" as="sourcePoint"/>
                        <Array as="points">
                            <mxPoint x="-160" y="700"/>
                        </Array>
                    </mxGeometry>
                </mxCell>
                <mxCell id="364" style="edgeStyle=none;html=1;fontSize=18;fontColor=#000000;strokeColor=#000000;curved=1;exitX=0;exitY=0.5;exitDx=0;exitDy=0;" edge="1" parent="1" source="336" target="352">
                    <mxGeometry relative="1" as="geometry">
                        <mxPoint x="-75" y="685" as="targetPoint"/>
                        <mxPoint x="-200" y="640" as="sourcePoint"/>
                        <Array as="points">
                            <mxPoint x="-170" y="660"/>
                        </Array>
                    </mxGeometry>
                </mxCell>
                <mxCell id="365" style="edgeStyle=none;html=1;fontSize=18;fontColor=#000000;strokeColor=#000000;curved=1;entryX=0.747;entryY=0.943;entryDx=0;entryDy=0;entryPerimeter=0;exitX=0;exitY=0.5;exitDx=0;exitDy=0;" edge="1" parent="1" source="335" target="352">
                    <mxGeometry relative="1" as="geometry">
                        <mxPoint x="-5" y="655" as="targetPoint"/>
                        <mxPoint x="-130" y="610" as="sourcePoint"/>
                        <Array as="points">
                            <mxPoint x="-110" y="640"/>
                        </Array>
                    </mxGeometry>
                </mxCell>
                <mxCell id="366" style="edgeStyle=none;html=1;exitX=1;exitY=0.5;exitDx=0;exitDy=0;fontSize=18;fontColor=#000000;strokeColor=#000000;curved=1;entryX=0;entryY=1;entryDx=0;entryDy=0;" edge="1" parent="1" source="329" target="351">
                    <mxGeometry relative="1" as="geometry">
                        <mxPoint x="292.05" y="320" as="targetPoint"/>
                        <mxPoint x="110.00000000000006" y="510" as="sourcePoint"/>
                        <Array as="points">
                            <mxPoint x="180" y="410"/>
                        </Array>
                    </mxGeometry>
                </mxCell>
                <mxCell id="367" style="edgeStyle=none;html=1;exitX=1;exitY=0.5;exitDx=0;exitDy=0;fontSize=18;fontColor=#000000;strokeColor=#000000;curved=1;entryX=0.027;entryY=0.347;entryDx=0;entryDy=0;entryPerimeter=0;" edge="1" parent="1" source="353" target="351">
                    <mxGeometry relative="1" as="geometry">
                        <mxPoint x="-15" y="355" as="targetPoint"/>
                        <mxPoint x="-197.04999999999995" y="545" as="sourcePoint"/>
                        <Array as="points">
                            <mxPoint x="110" y="335"/>
                        </Array>
                    </mxGeometry>
                </mxCell>
                <mxCell id="368" style="edgeStyle=none;html=1;exitX=1;exitY=0.25;exitDx=0;exitDy=0;fontSize=18;fontColor=#000000;strokeColor=#000000;curved=1;entryX=0;entryY=0;entryDx=0;entryDy=0;" edge="1" parent="1" source="330" target="350">
                    <mxGeometry relative="1" as="geometry">
                        <mxPoint x="245" y="345" as="targetPoint"/>
                        <mxPoint x="105" y="435" as="sourcePoint"/>
                        <Array as="points">
                            <mxPoint x="160" y="458"/>
                        </Array>
                    </mxGeometry>
                </mxCell>
                <mxCell id="369" style="edgeStyle=none;html=1;exitX=1;exitY=0.5;exitDx=0;exitDy=0;fontSize=18;fontColor=#000000;strokeColor=#000000;curved=1;entryX=0;entryY=0.5;entryDx=0;entryDy=0;" edge="1" parent="1" source="331" target="350">
                    <mxGeometry relative="1" as="geometry">
                        <mxPoint x="255" y="355" as="targetPoint"/>
                        <mxPoint x="115" y="445" as="sourcePoint"/>
                        <Array as="points">
                            <mxPoint x="140" y="500"/>
                        </Array>
                    </mxGeometry>
                </mxCell>
                <mxCell id="370" style="edgeStyle=none;html=1;exitX=1;exitY=0.5;exitDx=0;exitDy=0;fontSize=18;fontColor=#000000;strokeColor=#000000;curved=1;entryX=0;entryY=1;entryDx=0;entryDy=0;" edge="1" parent="1" source="332" target="350">
                    <mxGeometry relative="1" as="geometry">
                        <mxPoint x="265" y="365" as="targetPoint"/>
                        <mxPoint x="125" y="455" as="sourcePoint"/>
                        <Array as="points">
                            <mxPoint x="160" y="580"/>
                        </Array>
                    </mxGeometry>
                </mxCell>
                <mxCell id="371" style="edgeStyle=none;html=1;exitX=1;exitY=0.5;exitDx=0;exitDy=0;fontSize=18;fontColor=#000000;strokeColor=#000000;curved=1;" edge="1" parent="1" source="333" target="350">
                    <mxGeometry relative="1" as="geometry">
                        <mxPoint x="242.824855787278" y="603.2842712474619" as="targetPoint"/>
                        <mxPoint x="130" y="590" as="sourcePoint"/>
                        <Array as="points">
                            <mxPoint x="195" y="610"/>
                        </Array>
                    </mxGeometry>
                </mxCell>
                <mxCell id="372" style="edgeStyle=none;html=1;exitX=1;exitY=0.5;exitDx=0;exitDy=0;fontSize=18;fontColor=#000000;strokeColor=#000000;curved=1;entryX=0.5;entryY=1;entryDx=0;entryDy=0;" edge="1" parent="1" source="334" target="350">
                    <mxGeometry relative="1" as="geometry">
                        <mxPoint x="253.25238411879354" y="577.7002938589326" as="targetPoint"/>
                        <mxPoint x="130" y="595" as="sourcePoint"/>
                        <Array as="points">
                            <mxPoint x="205" y="635"/>
                        </Array>
                    </mxGeometry>
                </mxCell>
                <mxCell id="373" style="edgeStyle=none;html=1;fontSize=18;fontColor=#000000;strokeColor=#000000;curved=1;entryX=1;entryY=0.5;entryDx=0;entryDy=0;exitX=0.742;exitY=0.95;exitDx=0;exitDy=0;exitPerimeter=0;" edge="1" parent="1" source="350" target="335">
                    <mxGeometry relative="1" as="geometry">
                        <mxPoint x="-177.95000000000005" y="601.01" as="targetPoint"/>
                        <mxPoint x="-25" y="675" as="sourcePoint"/>
                        <Array as="points">
                            <mxPoint x="270" y="630"/>
                        </Array>
                    </mxGeometry>
                </mxCell>
                <mxCell id="374" style="edgeStyle=none;html=1;exitX=1;exitY=0.5;exitDx=0;exitDy=0;fontSize=18;fontColor=#000000;strokeColor=#000000;curved=1;entryX=0;entryY=0.5;entryDx=0;entryDy=0;" edge="1" parent="1" source="350" target="342">
                    <mxGeometry relative="1" as="geometry">
                        <mxPoint x="475" y="490" as="targetPoint"/>
                        <mxPoint x="335" y="580" as="sourcePoint"/>
                        <Array as="points">
                            <mxPoint x="407" y="510"/>
                        </Array>
                    </mxGeometry>
                </mxCell>
                <mxCell id="375" style="edgeStyle=none;html=1;fontSize=18;fontColor=#000000;strokeColor=#000000;curved=1;" edge="1" parent="1" source="350">
                    <mxGeometry relative="1" as="geometry">
                        <mxPoint x="460" y="470" as="targetPoint"/>
                        <mxPoint x="335" y="550" as="sourcePoint"/>
                        <Array as="points">
                            <mxPoint x="390" y="480"/>
                        </Array>
                    </mxGeometry>
                </mxCell>
                <mxCell id="376" style="edgeStyle=none;html=1;exitX=0.705;exitY=0.063;exitDx=0;exitDy=0;fontSize=18;fontColor=#000000;strokeColor=#000000;curved=1;exitPerimeter=0;" edge="1" parent="1" source="350" target="340">
                    <mxGeometry relative="1" as="geometry">
                        <mxPoint x="265" y="365" as="targetPoint"/>
                        <mxPoint x="125" y="455" as="sourcePoint"/>
                        <Array as="points">
                            <mxPoint x="350" y="450"/>
                        </Array>
                    </mxGeometry>
                </mxCell>
                <mxCell id="377" style="edgeStyle=none;html=1;exitX=1;exitY=0.5;exitDx=0;exitDy=0;fontSize=18;fontColor=#000000;strokeColor=#000000;curved=1;entryX=0;entryY=0;entryDx=0;entryDy=0;" edge="1" parent="1" source="342" target="348">
                    <mxGeometry relative="1" as="geometry">
                        <mxPoint x="733.01" y="484.9985714285713" as="targetPoint"/>
                        <mxPoint x="589.9999999999998" y="537.57" as="sourcePoint"/>
                        <Array as="points">
                            <mxPoint x="623" y="510"/>
                        </Array>
                    </mxGeometry>
                </mxCell>
                <mxCell id="378" style="edgeStyle=none;html=1;exitX=1;exitY=0.5;exitDx=0;exitDy=0;fontSize=18;fontColor=#000000;strokeColor=#000000;curved=1;entryX=0.5;entryY=0;entryDx=0;entryDy=0;" edge="1" parent="1" source="341" target="348">
                    <mxGeometry relative="1" as="geometry">
                        <mxPoint x="713.01" y="472.42857142857133" as="targetPoint"/>
                        <mxPoint x="569.9999999999998" y="525" as="sourcePoint"/>
                        <Array as="points">
                            <mxPoint x="630" y="470"/>
                        </Array>
                    </mxGeometry>
                </mxCell>
                <mxCell id="379" style="edgeStyle=none;html=1;exitX=1;exitY=0.5;exitDx=0;exitDy=0;fontSize=18;fontColor=#000000;strokeColor=#000000;curved=1;entryX=0.716;entryY=0.041;entryDx=0;entryDy=0;entryPerimeter=0;" edge="1" parent="1" source="340" target="348">
                    <mxGeometry relative="1" as="geometry">
                        <mxPoint x="760" y="414.9985714285713" as="targetPoint"/>
                        <mxPoint x="616.9899999999998" y="467.57" as="sourcePoint"/>
                        <Array as="points">
                            <mxPoint x="650" y="427.57"/>
                        </Array>
                    </mxGeometry>
                </mxCell>
                <mxCell id="380" style="edgeStyle=none;html=1;exitX=0.5;exitY=1;exitDx=0;exitDy=0;fontSize=18;fontColor=#000000;strokeColor=#000000;curved=1;entryX=1;entryY=0.5;entryDx=0;entryDy=0;" edge="1" parent="1" source="348" target="347">
                    <mxGeometry relative="1" as="geometry">
                        <mxPoint x="667.4285526485924" y="555.1263074867461" as="targetPoint"/>
                        <mxPoint x="600" y="520" as="sourcePoint"/>
                        <Array as="points">
                            <mxPoint x="740" y="640"/>
                        </Array>
                    </mxGeometry>
                </mxCell>
                <mxCell id="381" style="edgeStyle=none;html=1;exitX=0;exitY=0.5;exitDx=0;exitDy=0;fontSize=18;fontColor=#000000;strokeColor=#000000;curved=1;entryX=1;entryY=0.5;entryDx=0;entryDy=0;" edge="1" parent="1" source="347" target="349">
                    <mxGeometry relative="1" as="geometry">
                        <mxPoint x="680" y="695" as="targetPoint"/>
                        <mxPoint x="735" y="627.5" as="sourcePoint"/>
                        <Array as="points">
                            <mxPoint x="510" y="730"/>
                        </Array>
                    </mxGeometry>
                </mxCell>
                <mxCell id="382" style="edgeStyle=none;html=1;exitX=0.019;exitY=0.622;exitDx=0;exitDy=0;fontSize=18;fontColor=#000000;strokeColor=#000000;curved=1;entryX=1;entryY=0.5;entryDx=0;entryDy=0;exitPerimeter=0;" edge="1" parent="1" source="349" target="337">
                    <mxGeometry relative="1" as="geometry">
                        <mxPoint x="470" y="755" as="targetPoint"/>
                        <mxPoint x="550" y="710" as="sourcePoint"/>
                        <Array as="points">
                            <mxPoint x="190" y="740"/>
                        </Array>
                    </mxGeometry>
                </mxCell>
                <mxCell id="383" style="edgeStyle=none;html=1;exitX=0;exitY=0.5;exitDx=0;exitDy=0;fontSize=18;fontColor=#000000;strokeColor=#000000;curved=1;entryX=1;entryY=0.5;entryDx=0;entryDy=0;" edge="1" parent="1" source="348" target="336">
                    <mxGeometry relative="1" as="geometry">
                        <mxPoint x="680" y="695" as="targetPoint"/>
                        <mxPoint x="735" y="627.5" as="sourcePoint"/>
                        <Array as="points">
                            <mxPoint x="510" y="650"/>
                        </Array>
                    </mxGeometry>
                </mxCell>
            </root>
        </mxGraphModel>
    </diagram>
</mxfile>